# xmcd
#
# Track frame offsets: 
#        150
#        18246
#        41062
#        61613
#
# Disc length: 1137 seconds
#
# Revision: 1
# Processed by: cddbd v1.5.2PL0 Copyright (c) Steve Scherf et al.
# Submitted via: ExactAudioCopy v0.99pb3
#
DISCID=26046f04
DTITLE=autumnblaze - lighthouses
DYEAR=2002
DGENRE=Alt. Rock
TTITLE0=the cat with the silvery paws
TTITLE1=wake me up in the evening
TTITLE2=man on a lighthouse mountain
TTITLE3=towards the oldest silence
EXTD=YEAR: 1990
EXTT0=
EXTT1=
EXTT2=
EXTT3=
PLAYORDER=
